<?xml version="1.0" encoding="UTF-8" standalone="no"?> <svg id="Capa_1" enable-background="new 0 0 511 511" height="512" viewBox="0 0 511 511" width="512" xmlns="http://www.w3.org/2000/svg"><g><path d="m511 288.339c0-7.534-1.591-14.822-4.592-21.5h-268.978c-6.191 17.461-22.874 30-42.43 30-5.372 0-10.601-.936-15.5-2.73v18.73h325.418c3.88-7.317 6.082-15.655 6.082-24.5z"/><path d="m119.5 236.839v90c0 4.003 1.562 7.769 4.396 10.603 2.836 2.836 6.601 4.397 10.604 4.397 8.271 0 15-6.729 15-15v-90h30.5v15c0 4.003 1.562 7.769 4.396 10.603 2.836 2.836 6.601 4.397 10.604 4.397 8.271 0 15-6.729 15-15v-1-14-30h-180v30z"/><path d="m389.5 342.839h84v57h-84z"/><path d="m344.5 427.839c8.271 0 15-6.729 15-15v-70h-182.95c-6.466 16.935-22.871 29-42.05 29-12.017 0-23.317-4.683-31.817-13.185-4.57-4.569-8.024-9.952-10.252-15.815h-54.931v57h262v-28h30v41c0 8.272 6.729 15 15 15z"/><path d="m89.5 266.839h-84.885c-2.961 6.566-4.615 13.842-4.615 21.5 0 8.677 2.097 17.033 6.046 24.5h83.454z"/><path d="m240 206.839h239.5v30h-239.5z"/><path d="m508.976 176.839c-7.183-96.283-87.817-172.428-185.904-172.428h-137.144c-98.087 0-178.721 76.145-185.904 172.428zm-179.476-106h30v30h-30zm-90-15h30v30h-30zm-90 15h30v30h-30z"/><path d="m386.155 429.839c-6.721 16.408-22.856 28-41.655 28s-34.934-11.592-41.655-28h-301.265c6.752 43.417 44.39 76.75 89.67 76.75h329.5c24.236 0 47.024-9.441 64.163-26.58 13.798-13.787 22.596-31.242 25.509-50.17z"/></g></svg>